<?xml version="1.0" encoding="utf-8"?><svg viewBox="0 0 16 14" xmlns="http://www.w3.org/2000/svg" xmlns:xlink="http://www.w3.org/1999/xlink"><style>:root>svg{display:none}:root>svg:target{display:block}</style><svg fill="none" viewBox="0 0 9 6" id="arrow" xmlns="http://www.w3.org/2000/svg"><path d="m8 1.5-3.5 3-3.5-3"/></svg><svg viewBox="0 0 8 8" id="close" xmlns="http://www.w3.org/2000/svg"><path d="M4.46 3.667 7.177.948a.556.556 0 0 0-.785-.785l-2.72 2.719L.956.162a.555.555 0 1 0-.786.786l2.72 2.72L.162 6.391a.555.555 0 1 0 .786.786l2.725-2.725L6.393 7.17a.554.554 0 0 0 .937-.5.556.556 0 0 0-.152-.285L4.46 3.667Z"/></svg><svg fill="none" viewBox="0 0 16 9" id="gmb" xmlns="http://www.w3.org/2000/svg"><path stroke="#68A0D7" d="M4 .5h12M0 8.5h12M0 4.5h16"/></svg><svg viewBox="0 0 12 14" id="loc" xmlns="http://www.w3.org/2000/svg"><path d="M11.83 4.573C11.129 1.413 8.396 0 6.002 0h-.006C3.607 0 .882 1.413.172 4.567c-.798 3.522 1.339 6.505 3.273 8.389A3.658 3.658 0 0 0 6 14c.92 0 1.84-.348 2.55-1.044 1.934-1.884 4.071-4.86 3.28-8.383Zm-3.61.567L5.514 7.87a.5.5 0 0 1-.717 0L3.783 6.846a.518.518 0 0 1 0-.723.507.507 0 0 1 .717 0l.656.662 2.347-2.369a.507.507 0 0 1 .717 0 .518.518 0 0 1 0 .724Z"/></svg><svg viewBox="0 0 14 14" id="phone" xmlns="http://www.w3.org/2000/svg"><path d="M5.927 8.074C7.311 9.46 8.914 10.785 9.55 10.15c.909-.91 1.469-1.699 3.472-.09s.464 2.682-.416 3.562c-1.015 1.015-4.798.053-8.54-3.687C.324 6.195-.636 2.411.38 1.395 1.26.517 2.33-1.019 3.939.98c1.61 2 .82 2.561-.088 3.469-.635.638.69 2.24 2.076 3.625Z"/></svg></svg>