<svg width="17" height="24" viewBox="0 0 17 24" fill="none" xmlns="http://www.w3.org/2000/svg">
<path d="M3.27562 10.3964C3.97594 12.3889 5.86913 13.82 8.10075 13.82C10.3328 13.82 12.2257 12.3891 12.9259 10.3965C13.8766 10.1459 14.5842 9.20306 14.5842 8.07548C14.5842 7.28494 14.2354 6.58627 13.7002 6.15145L13.7877 5.68716C13.7877 2.54625 11.2411 0 8.1007 0C4.95961 0 2.41298 2.54625 2.41298 5.68716L2.50078 6.15211C1.96594 6.58697 1.61719 7.28536 1.61719 8.07548C1.61723 9.20283 2.32491 10.1454 3.27562 10.3964Z" fill="#68A0D7"/>
<path d="M11.7552 14.0512C11.2027 14.43 8.10094 17.8307 8.10094 17.8307C8.10094 17.8307 4.92652 14.392 4.34939 13.9805C2.8778 15.1428 0 17.0362 0 21.477C0 22.3967 2.31398 24.0015 8.10033 24.0015C13.8866 24.0015 16.2013 22.3967 16.2013 21.477C16.2013 17.8007 13.1928 15.4721 11.7552 14.0512Z" fill="#68A0D7"/>
</svg>
