<svg width="56" height="50" viewBox="0 0 56 50" fill="none" xmlns="http://www.w3.org/2000/svg">
<path d="M41.0246 40.7158V39.5795C41.0246 37.908 39.6696 36.5547 37.9997 36.5547H5.12227C3.24452 36.5547 1.7207 38.0766 1.7207 39.958V46.4235C1.7207 48.3048 3.24452 49.8268 5.12227 49.8268H56.0002V40.7158H41.0246Z" fill="#68A0D7"/>
<path d="M6.1608 18.0078C5.5343 18.0078 5.02637 18.5149 5.02637 19.1423V34.1999H8.85373V19.1423C8.85373 18.5149 8.34579 18.0078 7.71929 18.0078H6.1608Z" fill="#68A0D7"/>
<path d="M13.3072 18.0078C12.6788 18.0078 12.1709 18.5149 12.1709 19.1423V34.1999H16.0001V19.1423C16.0001 18.5149 15.4922 18.0078 14.8648 18.0078H13.3072Z" fill="#68A0D7"/>
<path d="M20.4528 18.0078C19.8263 18.0078 19.3184 18.5149 19.3184 19.1423V34.1999H23.1466V19.1423C23.1466 18.5149 22.6387 18.0078 22.0122 18.0078H20.4528Z" fill="#68A0D7"/>
<path d="M27.5984 18.0078C26.9729 18.0078 26.4648 18.5149 26.4648 19.1423V34.1999H30.2922V19.1423C30.2922 18.5149 29.7843 18.0078 29.1586 18.0078H27.5984Z" fill="#68A0D7"/>
<path d="M34.7448 18.0078C34.1183 18.0078 33.6104 18.5149 33.6104 19.1423V34.1999H37.4386V19.1423C37.4386 18.5149 36.9306 18.0078 36.3041 18.0078H34.7448Z" fill="#68A0D7"/>
<path d="M10.8945 15.5693C17.2287 15.5693 38.9717 15.5693 38.9717 15.5693C38.9717 8.52195 36.4182 2.80962 26.2093 2.80962C22.1248 2.80962 14.2138 2.80962 10.6408 2.80962C4.51549 2.80962 2.21741 0 2.21741 0C-3.39626 9.443 2.43912 15.5693 10.8945 15.5693Z" fill="#68A0D7"/>
</svg>
