<svg width="47" height="54" viewBox="0 0 47 54" fill="none" xmlns="http://www.w3.org/2000/svg">
<path d="M45.668 28.0556L45.6687 28.054C43.5394 27.0765 41.3502 26.2352 39.1142 25.5354L40.9332 15.0207C41.4322 12.4624 41.1641 9.81372 40.1624 7.40736C39.1608 5.00099 37.4703 2.94431 35.3035 1.49571C32.5674 -0.341031 29.0105 -0.497093 26.0211 1.08861C25.1263 1.55175 24.1335 1.79347 23.1259 1.79347C22.1184 1.79347 21.1255 1.55175 20.2307 1.08861C17.2411 -0.497143 13.6843 -0.341131 10.9484 1.49566C8.78148 2.94426 7.09103 5.00094 6.0894 7.40731C5.08776 9.81367 4.81962 12.4624 5.31866 15.0207L7.13768 25.5359C4.94837 26.221 2.80383 27.0417 0.716488 27.9932L0.58545 28.0529C0.410851 28.1325 0.262818 28.2606 0.159011 28.4219C0.0552038 28.5833 5.09141e-06 28.7711 0 28.9629V52.1264C0 52.3916 0.105357 52.646 0.292893 52.8335C0.48043 53.0211 0.734784 53.1264 1 53.1264H45.2518C45.517 53.1264 45.7713 53.0211 45.9589 52.8335C46.1464 52.646 46.2518 52.3916 46.2518 52.1264V29.0294C46.2518 28.4951 45.9729 28.1933 45.668 28.0556ZM9.06802 24.9619L7.28758 14.6694C7.28633 14.6624 7.28507 14.6555 7.28372 14.6485C6.85815 12.4751 7.08483 10.2244 7.93525 8.17947C8.78567 6.13459 10.2218 4.38688 12.0631 3.15621C14.186 1.73109 16.9564 1.61586 19.2935 2.85548C20.477 3.47172 21.7916 3.79348 23.1259 3.79347C24.4602 3.79346 25.7748 3.47168 26.9582 2.85542C29.2953 1.61586 32.0657 1.73103 34.1887 3.15621C36.0299 4.38688 37.4661 6.13459 38.3165 8.17947C39.1669 10.2244 39.3936 12.4751 38.968 14.6485C38.9667 14.6555 38.9654 14.6624 38.9642 14.6694L37.1838 24.9619H37.1502C35.1062 24.4061 33.0308 23.9725 30.9352 23.6634L31.4717 19.4901C31.4898 19.3492 31.4777 19.206 31.4361 19.0702C31.3945 18.9343 31.3245 18.8088 31.2307 18.7021C31.1368 18.5955 31.0213 18.51 30.8918 18.4515C30.7624 18.3929 30.6219 18.3626 30.4798 18.3626H15.7094C15.5673 18.3626 15.4269 18.3929 15.2974 18.4515C15.1679 18.51 15.0524 18.5955 14.9586 18.7021C14.8647 18.8088 14.7947 18.9343 14.7532 19.0702C14.7116 19.206 14.6995 19.3492 14.7176 19.4901L15.2552 23.6724C13.1809 23.981 11.1266 24.4115 9.10304 24.9619H9.06802ZM16.8462 20.3626H29.3431L28.7531 24.9521H17.4361L16.8462 20.3626ZM23.0947 47.1385C22.3285 47.1353 21.5889 46.8578 21.0096 46.3564C20.4303 45.8549 20.0497 45.1627 19.9367 44.4049L18.4448 32.7991H27.7445L26.2526 44.4049C26.1396 45.1627 25.759 45.8549 25.1797 46.3564C24.6005 46.8578 23.8608 47.1353 23.0947 47.1385ZM14.5342 30.799L13.7139 26.9619H32.5379L31.7176 30.799H14.5342Z" fill="#68A0D7"/>
</svg>
