<svg width="24" height="32" viewBox="0 0 24 32" fill="none" xmlns="http://www.w3.org/2000/svg">
<path d="M10.0977 22.8945H9.37891L10.0977 24.8367H16.2053L16.9237 22.8945H16.2053H10.0977Z" fill="#68A0D7"/>
<path d="M11.1262 31.9992H15.2372L15.7208 30.6914H10.6426L11.1262 31.9992Z" fill="#68A0D7"/>
<path d="M10.3574 25.6055L9.7002 26.4936L10.3574 27.3822H15.9448L16.6021 26.4936L15.9448 25.6055H10.3574Z" fill="#68A0D7"/>
<path d="M10.3574 28.0664L9.7002 28.954L10.3574 29.8426H15.9448L16.6021 28.954L15.9448 28.0664H10.3574Z" fill="#68A0D7"/>
<path d="M23.6879 2.89094L21.5746 2.33044C21.5196 2.31856 21.4745 2.27406 21.4627 2.21856L20.9051 0.105687C20.8904 0.0440625 20.8364 0 20.7723 0C20.7088 0 20.6542 0.0440625 20.6395 0.10575L20.0824 2.21862C20.0696 2.27406 20.025 2.31862 19.9695 2.3305L17.8567 2.891C17.7945 2.90331 17.751 2.95737 17.751 3.02137C17.751 3.08487 17.7946 3.13987 17.8567 3.15175L19.9695 3.71219C20.025 3.72362 20.0695 3.76862 20.0824 3.82412L20.6395 5.937C20.6542 5.99912 20.7088 6.04275 20.7723 6.04275C20.8364 6.04275 20.8904 5.99912 20.9051 5.937L21.4627 3.82412C21.4745 3.76862 21.5196 3.72362 21.5746 3.71219L23.6879 3.15175C23.7496 3.13987 23.7937 3.08487 23.7937 3.02137C23.7937 2.95731 23.7496 2.90325 23.6879 2.89094Z" fill="#68A0D7"/>
<path d="M19.6308 7.53246C16.7688 5.4779 14.3244 7.08909 13.1144 7.08909C11.9048 7.08909 9.46007 5.4779 6.59801 7.53246C3.16082 10.0005 4.04188 15.9345 6.59188 19.2058C8.50607 21.661 11.681 21.788 13.1144 21.788C14.5483 21.788 17.7228 21.661 19.6374 19.2058C22.1865 15.9345 23.0684 10.0004 19.6308 7.53246ZM12.7408 12.6775L10.811 13.1891C10.7603 13.2 10.7195 13.2408 10.7086 13.2911L10.1998 15.2214C10.1861 15.2778 10.1368 15.3172 10.0784 15.3172C10.0201 15.3172 9.97032 15.2778 9.95707 15.2214L9.44876 13.2911C9.43645 13.2408 9.39613 13.2 9.34588 13.1891L7.41557 12.6775C7.3592 12.6666 7.31932 12.6163 7.31932 12.558C7.31932 12.5006 7.35913 12.4499 7.41557 12.439L9.34588 11.9273C9.39613 11.9165 9.43645 11.8761 9.44876 11.825L9.95707 9.89565C9.97032 9.83965 10.0201 9.7994 10.0784 9.7994C10.1368 9.7994 10.1861 9.83971 10.1998 9.89565L10.7086 11.825C10.7195 11.8762 10.7603 11.9165 10.811 11.9273L12.7408 12.439C12.7968 12.4499 12.8371 12.5006 12.8371 12.558C12.837 12.6163 12.7968 12.6666 12.7408 12.6775Z" fill="#68A0D7"/>
<path d="M4.67844 6.92487C4.67844 6.87606 4.64525 6.83288 4.59694 6.82387L2.96056 6.39006C2.91837 6.38106 2.88281 6.346 2.87381 6.30331L2.44187 4.66744C2.43044 4.61956 2.38875 4.58594 2.33944 4.58594C2.29012 4.58594 2.24794 4.61956 2.23656 4.66744L1.80512 6.30331C1.79562 6.346 1.76056 6.38106 1.71837 6.39006L0.0819998 6.82387C0.0336248 6.83288 0 6.87606 0 6.92487C0 6.97469 0.0336248 7.01637 0.0819998 7.02637L1.71837 7.45925C1.76056 7.46875 1.79562 7.50381 1.80512 7.5465L2.23656 9.18281C2.24794 9.23069 2.29019 9.26437 2.33944 9.26437C2.38875 9.26437 2.43044 9.23075 2.44187 9.18281L2.87381 7.5465C2.88281 7.50381 2.91837 7.46875 2.96056 7.45925L4.59694 7.02637C4.64525 7.01637 4.67844 6.97462 4.67844 6.92487Z" fill="#68A0D7"/>
</svg>
