<svg width="53" height="64" viewBox="0 0 53 64" fill="none" xmlns="http://www.w3.org/2000/svg">
<path d="M8.60925 16.6262L13.3673 15.3657C13.5063 15.3389 13.605 15.2147 13.605 15.0719C13.605 14.9293 13.5063 14.8049 13.3673 14.778L8.60925 13.5177C8.48488 13.4895 8.38375 13.3895 8.357 13.2642L7.10125 8.50728C7.06825 8.36828 6.94525 8.26953 6.80263 8.26953C6.66 8.26953 6.53688 8.36828 6.50388 8.50728L5.24937 13.2642C5.22137 13.3897 5.12012 13.4897 4.99587 13.5177L0.237875 14.778C0.09875 14.8049 0 14.9293 0 15.0719C0 15.2147 0.09875 15.3389 0.237875 15.3657L4.99587 16.6262C5.12025 16.653 5.2215 16.7542 5.24937 16.8797L6.50388 21.6365C6.53688 21.7755 6.65988 21.8743 6.80263 21.8743C6.94513 21.8743 7.06825 21.7755 7.10125 21.6365L8.357 16.8797C8.38375 16.7542 8.48488 16.653 8.60925 16.6262Z" fill="#68A0D7"/>
<path d="M51.9885 8.59813L45.7031 6.93288C45.5385 6.89638 45.4043 6.76463 45.3691 6.59888L43.7111 0.313375C43.6672 0.1305 43.505 0 43.3161 0C43.1271 0 42.965 0.1305 42.9211 0.313375L41.2644 6.59875C41.2266 6.7645 41.0937 6.89625 40.9291 6.93275L34.6436 8.598C34.4595 8.6345 34.3291 8.79787 34.3291 8.98687C34.3291 9.17587 34.4596 9.33913 34.6436 9.3745L40.9291 11.041C41.0937 11.0751 41.2266 11.2093 41.2644 11.375L42.9211 17.6593C42.9649 17.8433 43.1271 17.9737 43.3161 17.9737C43.505 17.9737 43.6671 17.8433 43.7111 17.6593L45.369 11.375C45.4042 11.2093 45.5384 11.075 45.703 11.041L51.9883 9.3745C52.1725 9.33913 52.303 9.17587 52.303 8.98687C52.303 8.79787 52.1726 8.63463 51.9885 8.59813Z" fill="#68A0D7"/>
<path d="M40.343 21.6793C34.7377 17.3479 30.2783 20.6602 26.1993 20.6602C22.1228 20.6602 17.6623 17.3479 12.057 21.6793C6.45171 26.0108 6.40546 34.7673 9.76396 45.1221C12.8213 54.5504 14.9913 58.9513 15.3705 60.9712C16.1348 65.0489 20.9758 65.0489 21.995 60.7164C22.5483 58.3637 22.379 49.9632 26.1995 49.9632C30.0225 49.9632 29.8518 58.3638 30.4053 60.7164C31.4245 65.0489 36.2653 65.0489 37.0297 60.9712C37.4088 58.9513 39.5788 54.5504 42.6362 45.1221C45.9947 34.7673 45.9483 26.0108 40.343 21.6793ZM25.7056 32.3596L21.1658 33.5628C21.0476 33.5871 20.9501 33.6846 20.9246 33.8041L19.7262 38.3427C19.6957 38.4754 19.5787 38.5694 19.4422 38.5694C19.3057 38.5694 19.1886 38.4756 19.1581 38.3427L17.9598 33.8041C17.9331 33.6846 17.8366 33.5871 17.7185 33.5628L13.1787 32.3596C13.0457 32.3341 12.952 32.2146 12.952 32.0792C12.952 31.9427 13.0458 31.8244 13.1787 31.7988L17.7185 30.5956C17.8367 30.5699 17.9331 30.4737 17.9598 30.3543L19.1581 25.8157C19.1886 25.6829 19.3056 25.5889 19.4422 25.5889C19.5787 25.5889 19.6957 25.6828 19.7262 25.8157L20.9246 30.3543C20.9502 30.4738 21.0476 30.5701 21.1658 30.5956L25.7056 31.7988C25.8386 31.8244 25.9325 31.9427 25.9325 32.0792C25.9325 32.2146 25.8386 32.3341 25.7056 32.3596Z" fill="#68A0D7"/>
</svg>
