<svg width="56" height="52" viewBox="0 0 56 52" fill="none" xmlns="http://www.w3.org/2000/svg">
<path d="M4.39185 17.3771V23.1702C4.39185 23.7741 4.88152 24.2639 5.4856 24.2639C21.3872 24.2639 34.6046 24.2639 50.5124 24.2639C51.1165 24.2639 51.6062 23.7741 51.6062 23.1702V17.4662C56.2885 15.9066 60.0334 8.07424 47.4223 3.15258C36.6497 -1.05146 19.3452 -1.05026 8.57577 3.15258C3.04501 5.31099 -0.000976562 8.30962 -0.000976562 11.596C-0.000976562 14.2086 1.66098 16.3643 4.39185 17.3771ZM49.4187 15.487H47.1036V14.3843C47.1036 13.7803 46.6139 13.2906 46.0098 13.2906C45.4057 13.2906 44.9161 13.7803 44.9161 14.3843V15.487H42.6009V14.4941C42.6009 12.6144 44.1301 11.0852 46.0098 11.0852C47.8895 11.0852 49.4187 12.6144 49.4187 14.4941V15.487ZM40.4133 15.487H38.0982V14.3843C38.0982 13.7803 37.6085 13.2906 37.0044 13.2906C36.4003 13.2906 35.9107 13.7803 35.9107 14.3843V15.487H33.5955V14.4941C33.5955 12.6144 35.1247 11.0852 37.0044 11.0852C38.8841 11.0852 40.4133 12.6144 40.4133 14.4941V15.487ZM31.408 15.487H29.0929V14.3843C29.0929 13.7803 28.6032 13.2906 27.9991 13.2906C27.3951 13.2906 26.9054 13.7803 26.9054 14.3843V15.487H24.5902V14.4941C24.5902 12.6144 26.1194 11.0852 27.9991 11.0852C29.8789 11.0852 31.408 12.6144 31.408 14.4941V15.487ZM22.4026 15.487H20.0875V14.3843C20.0875 13.7803 19.5978 13.2906 18.9937 13.2906C18.3897 13.2906 17.9 13.7803 17.9 14.3843V15.487H15.5849V14.4941C15.5849 12.6144 17.114 11.0852 18.9937 11.0852C20.8735 11.0852 22.4026 12.6144 22.4026 14.4941V15.487ZM13.3972 15.487H11.0821V14.3843C11.0821 13.7803 10.5924 13.2906 9.98835 13.2906C9.38427 13.2906 8.8946 13.7803 8.8946 14.3843V15.487H6.57935V14.4941C6.57935 12.6144 8.10852 11.0852 9.98824 11.0852C11.868 11.0852 13.3971 12.6144 13.3971 14.4941L13.3972 15.487ZM6.57935 17.6745H8.89449V18.7771C8.89449 19.3811 9.38416 19.8709 9.98824 19.8709C10.5923 19.8709 11.082 19.3811 11.082 18.7771V17.6745H13.3971V22.0763H6.57935V17.6745ZM15.5847 17.6745H17.8999V18.7771C17.8999 19.3811 18.3896 19.8709 18.9936 19.8709C19.5977 19.8709 20.0874 19.3811 20.0874 18.7771V17.6745H22.4025V22.0763H15.5847V17.6745ZM24.5901 17.6745H26.9053V18.7771C26.9053 19.3811 27.3949 19.8709 27.999 19.8709C28.6031 19.8709 29.0928 19.3811 29.0928 18.7771V17.6745H31.4079V22.0763H24.59L24.5901 17.6745ZM33.5955 17.6745H35.9107V18.7771C35.9107 19.3811 36.4003 19.8709 37.0044 19.8709C37.6085 19.8709 38.0982 19.3811 38.0982 18.7771V17.6745H40.4133V22.0763H33.5955V17.6745ZM42.6008 22.0763V17.6745H44.9159V18.7771C44.9159 19.3811 45.4056 19.8709 46.0097 19.8709C46.6138 19.8709 47.1034 19.3811 47.1034 18.7771V17.6745H49.4186V22.0763H42.6008Z" fill="#68A0D7"/>
<path d="M51.6062 34.365V28.6602C51.6062 28.0562 51.1165 27.5664 50.5124 27.5664C34.6109 27.5664 21.3934 27.5664 5.4856 27.5664C4.88152 27.5664 4.39185 28.0562 4.39185 28.6602V34.4532C1.66098 35.466 -0.000976562 37.6217 -0.000976562 40.2343C-0.000976562 43.5207 3.04501 46.5193 8.57577 48.6777C19.3483 52.8818 36.6529 52.8806 47.4223 48.6777C52.953 46.5193 55.999 43.5207 55.999 40.2343C55.999 37.3478 53.8631 35.1172 51.6062 34.365ZM6.57935 36.3433H8.89449V37.446C8.89449 38.05 9.38416 38.5398 9.98824 38.5398C10.5923 38.5398 11.082 38.05 11.082 37.446V36.3433H13.3971V37.3362C13.3971 39.2159 11.868 40.7451 9.98824 40.7451C8.10852 40.7451 6.57935 39.2159 6.57935 37.3362V36.3433ZM15.5847 36.3433H17.8999V37.446C17.8999 38.05 18.3896 38.5398 18.9936 38.5398C19.5977 38.5398 20.0874 38.05 20.0874 37.446V36.3433H22.4025V37.3362C22.4025 39.2159 20.8734 40.7451 18.9936 40.7451C17.1139 40.7451 15.5847 39.2159 15.5847 37.3362V36.3433ZM24.5901 36.3433H26.9053V37.446C26.9053 38.05 27.3949 38.5398 27.999 38.5398C28.6031 38.5398 29.0928 38.05 29.0928 37.446V36.3433H31.4079V37.3362C31.4079 39.2159 29.8787 40.7451 27.999 40.7451C26.1193 40.7451 24.5901 39.2159 24.5901 37.3362V36.3433ZM33.5955 36.3433H35.9107V37.446C35.9107 38.05 36.4003 38.5398 37.0044 38.5398C37.6085 38.5398 38.0982 38.05 38.0982 37.446V36.3433H40.4133V37.3362C40.4133 39.2159 38.8841 40.7451 37.0044 40.7451C35.1247 40.7451 33.5955 39.2159 33.5955 37.3362V36.3433ZM42.6008 36.3433H44.9159V37.446C44.9159 38.05 45.4056 38.5398 46.0097 38.5398C46.6138 38.5398 47.1034 38.05 47.1034 37.446V36.3433H49.4186V37.3362C49.4186 39.2159 47.8894 40.7451 46.0097 40.7451C44.13 40.7451 42.6008 39.2159 42.6008 37.3362V36.3433ZM49.4187 34.1558H47.1036V33.0532C47.1036 32.4492 46.6139 31.9595 46.0098 31.9595C45.4057 31.9595 44.9161 32.4492 44.9161 33.0532V34.1558H42.6009V29.754H49.4188V34.1558H49.4187ZM40.4133 34.1558H38.0982V33.0532C38.0982 32.4492 37.6085 31.9595 37.0044 31.9595C36.4003 31.9595 35.9107 32.4492 35.9107 33.0532V34.1558H33.5955V29.754H40.4133V34.1558ZM31.408 34.1558H29.0929V33.0532C29.0929 32.4492 28.6032 31.9595 27.9991 31.9595C27.3951 31.9595 26.9054 32.4492 26.9054 33.0532V34.1558H24.5902V29.754H31.4081V34.1558H31.408ZM22.4026 34.1558H20.0875V33.0532C20.0875 32.4492 19.5978 31.9595 18.9937 31.9595C18.3897 31.9595 17.9 32.4492 17.9 33.0532V34.1558H15.5849V29.754H22.4026V34.1558ZM13.3972 29.754V34.1558H11.0821V33.0532C11.0821 32.4492 10.5924 31.9595 9.98835 31.9595C9.38427 31.9595 8.8946 32.4492 8.8946 33.0532V34.1558H6.57935V29.754H13.3972Z" fill="#68A0D7"/>
</svg>
