<svg width="24" height="32" fill="none" xmlns="http://www.w3.org/2000/svg"><path d="M10.098 22.895h-.72l.72 1.942h6.107l.719-1.942H10.098ZM11.126 32h4.111l.484-1.309h-5.078L11.126 32ZM10.357 25.605l-.657.889.657.888h5.588l.657-.888-.657-.889h-5.588ZM10.357 28.066l-.657.888.657.889h5.588l.657-.889-.657-.888h-5.588ZM23.688 2.89l-2.113-.56a.147.147 0 0 1-.112-.111L20.905.106a.136.136 0 0 0-.265 0l-.558 2.113a.15.15 0 0 1-.113.111l-2.112.561a.131.131 0 0 0-.106.13c0 .064.044.119.106.13l2.113.561c.055.012.1.057.112.112l.558 2.113a.136.136 0 0 0 .265 0l.558-2.113a.147.147 0 0 1 .112-.112l2.113-.56a.132.132 0 0 0 .106-.13.132.132 0 0 0-.106-.131ZM19.63 7.532c-2.861-2.054-5.306-.443-6.516-.443s-3.654-1.611-6.516.443c-3.437 2.469-2.556 8.402-.006 11.674 1.914 2.455 5.089 2.582 6.522 2.582 1.434 0 4.609-.127 6.523-2.582 2.55-3.271 3.431-9.206-.006-11.674Zm-6.89 5.146-1.929.511a.135.135 0 0 0-.102.102l-.51 1.93a.124.124 0 0 1-.12.096.124.124 0 0 1-.122-.096l-.508-1.93a.138.138 0 0 0-.103-.102l-1.93-.511a.12.12 0 0 1-.097-.12.12.12 0 0 1 .097-.119l1.93-.512c.05-.01.09-.05.103-.102l.508-1.93a.125.125 0 0 1 .243 0l.509 1.93c.01.051.051.091.102.102l1.93.512c.056.01.096.062.096.119a.12.12 0 0 1-.096.12ZM4.678 6.925a.101.101 0 0 0-.081-.101L2.96 6.39a.115.115 0 0 1-.087-.087l-.432-1.636a.105.105 0 0 0-.205 0l-.432 1.636a.116.116 0 0 1-.087.087l-1.636.434a.102.102 0 0 0-.082.1c0 .05.034.092.082.102l1.636.433c.043.01.078.045.087.088l.432 1.636a.106.106 0 0 0 .205 0l.432-1.636a.116.116 0 0 1 .087-.088l1.636-.433a.102.102 0 0 0 .081-.101Z" fill="#68A0D7"/></svg>