<svg width="17" height="24" fill="none" xmlns="http://www.w3.org/2000/svg"><path d="M3.276 10.396A5.117 5.117 0 0 0 8.1 13.82a5.116 5.116 0 0 0 4.825-3.424c.95-.25 1.658-1.193 1.658-2.32 0-.791-.349-1.49-.884-1.925l.088-.464a5.687 5.687 0 0 0-11.375 0l.088.465c-.535.435-.884 1.133-.884 1.923 0 1.128.708 2.07 1.659 2.321ZM11.755 14.051c-.552.379-3.654 3.78-3.654 3.78s-3.174-3.439-3.752-3.85C2.878 15.142 0 17.035 0 21.477c0 .92 2.314 2.524 8.1 2.524 5.787 0 8.101-1.604 8.101-2.524 0-3.676-3.008-6.005-4.446-7.426Z" fill="#68A0D7"/></svg>