<svg width="21" height="24" fill="none" xmlns="http://www.w3.org/2000/svg"><path d="M20.812 4.512c-.516-2.12-2.208-3.847-4.313-4.393-1.509-.392-2.953.239-4.178 1.14-.153.112-.327.175-.493.257l1.328.853a.75.75 0 0 1-.812 1.262L7.633.6C6.663.094 5.6-.166 4.501.12 2.397.666.704 2.392.188 4.512-.287 6.462.168 8.3 1.196 9.688c1.095 1.48 1.532 3.218 1.701 5.032.206 2.21.484 4.414.982 6.578l.365 1.591c.15.65.726 1.111 1.391 1.111.655 0 1.226-.448 1.385-1.086l1.616-6.488a1.922 1.922 0 0 1 1.863-1.46c.882 0 1.65.602 1.864 1.46l1.616 6.488c.159.638.73 1.086 1.385 1.086.664 0 1.24-.46 1.39-1.111l.366-1.591c.497-2.164.775-4.367.982-6.578.169-1.814.606-3.552 1.7-5.032 1.03-1.388 1.485-3.225 1.01-5.176Z" fill="#68A0D7"/></svg>