<svg width="8" height="8" viewBox="0 0 8 8" xmlns="http://www.w3.org/2000/svg">
<path d="M4.45918 3.66707L7.17807 0.948399C7.27927 0.84362 7.33526 0.703286 7.334 0.557621C7.33273 0.411956 7.2743 0.272615 7.1713 0.169611C7.06829 0.0666063 6.92896 0.00817916 6.78329 0.00691337C6.63763 0.00564758 6.49729 0.0616445 6.39251 0.162843L3.67362 2.88151L0.954956 0.162843C0.9034 0.11122 0.842173 0.0702664 0.774777 0.0423244C0.707381 0.0143823 0.635137 0 0.562178 0C0.48922 0 0.416976 0.0143823 0.34958 0.0423244C0.282184 0.0702664 0.220957 0.11122 0.169401 0.162843C0.117778 0.2144 0.0768238 0.275627 0.0488817 0.343023C0.0209396 0.410419 0.00655735 0.482662 0.00655735 0.555621C0.00655735 0.62858 0.0209396 0.700823 0.0488817 0.76822C0.0768238 0.835616 0.117778 0.896843 0.169401 0.948399L2.88807 3.66707L0.163179 6.39218C0.0853204 6.4698 0.0322659 6.5688 0.010742 6.67661C-0.0107818 6.78443 0.000194401 6.89621 0.042279 6.99778C0.0843635 7.09935 0.155661 7.18613 0.247131 7.24713C0.338601 7.30813 0.446124 7.34059 0.556067 7.3404C0.69829 7.3404 0.840512 7.28618 0.948956 7.17773L3.67385 4.45262L6.39251 7.17129C6.44406 7.22294 6.5053 7.2639 6.57273 7.29182C6.64015 7.31973 6.71243 7.33405 6.7854 7.33395C6.89525 7.33393 7.00262 7.30134 7.09396 7.24031C7.18529 7.17928 7.25648 7.09254 7.29852 6.99106C7.34057 6.88958 7.35159 6.77791 7.33019 6.67016C7.30879 6.56242 7.25593 6.46344 7.17829 6.38573L4.45918 3.66707Z" />
</svg>
