<svg width="12" height="14" viewBox="0 0 12 14" xmlns="http://www.w3.org/2000/svg">
<path d="M11.8309 4.57338C11.1276 1.41297 8.39537 0 6.00129 0C6.00129 0 6.00129 0 5.99453 0C3.6072 0 0.881733 1.41297 0.171625 4.56655C-0.626401 8.08874 1.51069 11.0717 3.44488 12.9556C4.16176 13.6519 5.08154 14 6.00129 14C6.92105 14 7.84081 13.6519 8.55092 12.9556C10.4851 11.0717 12.6222 8.09556 11.8309 4.57338ZM8.21954 5.13993L5.51436 7.87031C5.41292 7.9727 5.28442 8.02048 5.15593 8.02048C5.02743 8.02048 4.89894 7.9727 4.79749 7.87031L3.78303 6.84642C3.58691 6.64846 3.58691 6.32082 3.78303 6.12287C3.97916 5.92491 4.30378 5.92491 4.4999 6.12287L5.15593 6.78498L7.50267 4.41638C7.69879 4.21843 8.02341 4.21843 8.21954 4.41638C8.41566 4.61433 8.41566 4.94198 8.21954 5.13993Z"/>
</svg>